<?xml version="1.0" encoding="UTF-8" standalone="no"?>
<!-- Created with Inkscape (http://www.inkscape.org/) -->

<svg version="1.1" id="svg1825" width="143.43509" height="498.10254" viewBox="0 0 143.43509 498.10254" xmlns="http://www.w3.org/2000/svg" xmlns:svg="http://www.w3.org/2000/svg">
  <defs id="defs1829"></defs>
  <g id="g1831" transform="translate(-1.8351785,-0.92137593)">
    <path style="fill: #3b3948; stroke-width: .614251px" d="m 128.37838,495.35088 c -8.44595,-1.99007 -26.68919,-6.2728 -40.540541,-9.5172 -66.12592,-15.48862 -70.13195,-16.6569 -76.58052,-22.33316 -3.5545697,-3.12886 -6.9504597,-9.56328 -8.3402997,-15.80292 -1.01034,-4.53589 -1.07427,-16.30117 -1.07427,-197.6976 0,-215.967169 -0.38791,-197.693641 4.38961,-206.785278 C 10.494919,35.103054 16.850439,31.281525 32.555279,27.38692 49.659249,23.14535 144.0485,0.92137592 144.95924,0.92137592 c 0.17107,0 0.31103,112.08538408 0.31103,249.07862408 0,198.88259 -0.15474,249.0676 -0.76781,249.0239 -0.4223,-0.0301 -7.67814,-1.68296 -16.12408,-3.67302 z" id="path2377"></path>
  </g>
</svg>
